{"asset":{"copyright":"","generator":"Aspose GLTF","version":"2.0"},"extensionsUsed":["KHR_materials_unlit"],"accessors":[{"name":"POSITION","bufferView":0,"componentType":5126,"count":727,"max":[789.15966796875,-168.3681182861328,169.17433166503906],"min":[3.376190423965454,-954.151611328125,12.664255142211914],"type":"VEC3"},{"bufferView":1,"componentType":5123,"count":1470,"type":"SCALAR"}],"bufferViews":[{"buffer":0,"byteLength":8724,"byteStride":12,"target":34962},{"buffer":0,"byteLength":2940,"byteOffset":8724,"target":34963}],"buffers":[{"byteLength":11664,"uri":"logoElectric.bin"}],"materials":[{"extensions":{"KHR_materials_unlit":{}},"name":"material1","pbrMetallicRoughness":{}}],"meshes":[{"name":"mesh","primitives":[{"attributes":{"POSITION":0},"indices":1,"material":0,"mode":1}]}],"nodes":[{"mesh":0}],"scenes":[{"name":"Default","nodes":[0]}]}